<?xml version="1.0" encoding="UTF-8" standalone="no"?> <svg xmlns="http://www.w3.org/2000/svg" xmlns:xlink="http://www.w3.org/1999/xlink" xmlns:serif="http://www.serif.com/" width="100%" height="100%" viewBox="0 0 967 917" version="1.1" xml:space="preserve" style="fill-rule:evenodd;clip-rule:evenodd;stroke-linejoin:round;stroke-miterlimit:2;"><g id="EASA_Logo-Submark-Black"><rect x="-0" y="0" width="966.667" height="916.667" style="fill:none;"></rect><path id="Spiral-3.2--Af-2.6-2.4.2---Manual-Fix-" serif:id="Spiral 3.2 (Af 2.6+2.4.2 &gt; Manual Fix)" d="M0,479.126c-0.006,-8.379 0.241,-16.82 0.75,-25.316c7.376,-125.825 68.715,-239.051 163.824,-321.15c94.148,-81.269 221.78,-131.583 362.639,-132.642c1.711,-0.013 3.421,-0.019 5.129,-0.018c11.196,-0.006 22.477,0.297 33.834,0.917c64.027,3.447 125.201,16.504 181.817,37.411c54.773,20.225 105.222,47.959 149.899,81.66c17.009,12.799 30.421,24.395 40.226,33.364c0.943,0.859 1.884,1.722 2.82,2.588l0.538,0.51c3.379,3.144 6.242,5.888 8.591,8.157l1.197,1.136c0.433,0.428 0.856,0.861 1.271,1.3c4.244,4.492 7.533,9.561 9.866,14.948c4.36,10.069 5.38,21.249 3.049,31.841c-0.599,2.77 -1.425,5.485 -2.48,8.088c-0.246,0.609 -0.501,1.205 -0.763,1.79c-2.473,5.565 -5.975,10.785 -10.508,15.37c-5.013,5.071 -10.817,8.89 -17.021,11.457c-10.043,4.2 -19.35,4.442 -26.407,3.531c-5.201,-0.655 -10.323,-2.096 -15.171,-4.325c-5.339,-2.454 -10.347,-5.863 -14.767,-10.228l-7.79,-7.625c-3.044,-2.911 -6.125,-5.776 -9.241,-8.594c-11.512,-10.398 -23.618,-20.268 -36.27,-29.565c-64.045,-47.013 -139.284,-77.067 -216.757,-89.647c-23.138,-3.738 -46.856,-5.984 -71.03,-6.615c-52.455,-1.283 -104.687,5.406 -153.973,20.223c-159.642,47.996 -272.061,173.182 -293.177,317.474c-1.346,9.217 -2.324,18.526 -2.92,27.913c-0.74,11.709 -0.878,23.516 -0.393,35.391c0.684,16.718 2.676,33.118 5.884,49.129c5.793,28.812 15.52,56.412 28.652,82.347c64.365,126.896 210.512,213.368 374.774,210.056c21.716,-0.438 42.9,-2.568 63.41,-6.236c24.61,-4.411 48.326,-11.039 70.867,-19.649c86.685,-33.148 155.103,-95.379 190.886,-171.162c17.309,-36.776 27.04,-77.017 27.357,-119.214c0.463,-61.471 -22.101,-118.377 -60.076,-164.818c-45.519,-55.516 -113.076,-96.058 -189.236,-112.269c-20.631,-4.37 -41.966,-6.979 -63.778,-7.64c-6.949,-0.199 -13.935,-0.194 -20.95,0.021c-85.339,2.608 -159.397,38.789 -206.53,95.141c-5.554,6.641 -10.734,13.561 -15.514,20.738c-24.634,36.99 -38.662,80.834 -38.581,128.534c0.01,5.562 0.262,11.095 0.752,16.59c0.82,9.057 2.26,17.967 4.285,26.692c12.939,55.464 50.105,104.783 103.35,135.899c8.971,5.239 18.385,9.957 28.2,14.101c38.021,16.041 82.271,23.513 130.505,19.095c48.354,-4.43 94.939,-21.611 129.475,-50.734c34.693,-29.368 56.77,-70.59 57.154,-121.596c0.256,-34.027 -10.308,-64.918 -28.57,-90.435c-21.048,-29.223 -52.189,-51.387 -88.216,-63.451c-18.841,-6.269 -39.129,-9.818 -60.236,-10.213c-1.94,-0.028 -3.885,-0.029 -5.834,-0.001c-74.121,1.058 -136.358,55.232 -135.631,125.331c0.215,20.798 10.272,43.251 29.684,59.864c9.507,8.066 20.997,14.591 34.153,18.986c11.832,3.908 25.266,6.163 40.267,6.212c7.007,0.023 14.212,-0.246 21.276,-0.414c-0.375,-5.916 -0.534,-11.944 -0.491,-17.664c0.062,-8.319 0.603,-16.522 1.618,-24.579c1.038,-8.232 2.545,-16.315 4.519,-24.216c0.166,-0.687 0.38,-1.35 0.637,-1.986c1.119,-2.767 3.06,-5.029 5.46,-6.568c3.122,-2.001 7.022,-2.777 10.908,-1.845l0.022,-0.003l0.023,0.014c3.763,0.916 6.805,3.266 8.685,6.329c1.893,3.085 2.572,6.846 1.689,10.686c-0.268,1.168 -0.505,2.288 -0.652,2.963c-3.004,13.782 -3.992,27.004 -3.994,39.113l0.002,0.987c0.031,6.523 0.38,12.584 0.921,17.96l0.738,0.128c1.198,0.215 2.624,0.478 3.765,0.755c9.664,2.348 16.878,7.029 20.374,16.136c2.136,5.564 2.091,11.208 0.47,16.256c-0.614,1.909 -1.686,4.135 -2.719,5.837c-6.703,11.047 -22.307,16.799 -36.612,6.348c-0.24,-0.176 -0.556,-0.389 -0.934,-0.667c-2.071,-1.526 -6.275,-5.577 -9.379,-14.877l-0.178,-0.506c-8.483,0.307 -17.895,0.944 -28.283,0.881c-4.232,0.025 -8.354,-0.059 -12.256,-0.335c-34.376,-2.431 -63.007,-15.266 -83.981,-33.698c-6.686,-5.875 -12.591,-12.332 -17.663,-19.238c-5.871,-7.946 -10.832,-16.776 -14.531,-26.456c-4.726,-12.235 -7.239,-25.18 -7.338,-38.311c-0.285,-37.848 13.433,-71.932 36.327,-98.924c13.374,-15.827 29.93,-29.206 48.793,-39.422c25.922,-14.074 56.051,-22.128 87.777,-22.367c42.84,-0.322 83.046,10.426 117.094,29.496c51.547,28.813 89.532,76.999 100.731,136.715c1.37,7.301 2.338,14.77 2.882,22.394c0.643,9.012 0.694,18.245 0.114,27.675c-0.38,6.336 -1.033,12.548 -1.947,18.633c-2.689,18.14 -7.768,35.226 -14.922,51.138c-14.425,32.176 -37.202,59.325 -65.691,80.787c-22.013,16.584 -47.549,29.695 -75.349,38.967c-27.771,9.307 -57.836,14.767 -89.03,15.93c-3.6,0.141 -7.214,0.226 -10.839,0.253c-78.195,0.588 -147.604,-26.638 -198.865,-70.507c-2.607,-2.231 -5.166,-4.505 -7.677,-6.821c-19.642,-18.1 -36.447,-38.881 -49.737,-61.799c-21.601,-37.179 -33.768,-79.543 -34.104,-124.223c-0.653,-86.713 37.367,-164.285 100.078,-219.202c55.435,-48.545 130.462,-79.186 215.431,-82.173c17.674,-0.656 35.785,-0.124 54.249,1.68c80.537,7.713 154.375,38.226 212.821,83.97c58.321,45.595 102.141,107.008 121.631,178.384c7.076,25.785 10.918,52.687 11.126,80.338c0.05,4.997 -0.014,10.027 -0.196,15.087c-0.251,6.947 -0.707,13.853 -1.362,20.714c-5.016,52.809 -21.9,102.793 -48.307,147.744c-24.472,41.705 -57.152,79.111 -96.247,110.37c-75.913,60.782 -175.977,98.17 -285.863,98.996c-1.499,0.012 -2.996,0.017 -4.492,0.015c-11.403,0.01 -22.922,-0.366 -34.541,-1.144c-112.039,-7.354 -213.321,-49.727 -290.728,-114.539c-94.798,-79.373 -153.58,-192.613 -154.526,-318.214c-0.009,-1.216 -0.013,-2.43 -0.012,-3.643Z"></path><circle cx="606.808" cy="478.092" r="22.917"></circle><circle cx="463.622" cy="478.092" r="22.917"></circle></g></svg> 