<svg width="125" height="128" viewBox="0 0 125 128" fill="none" xmlns="http://www.w3.org/2000/svg">
<g clip-path="url(#clip0_221_1436)">
<path d="M0.819473 61.1433C0.822223 34.0136 17.0512 10.6695 40.332 0.302063L41.943 3.92422C20.0492 13.6814 4.78392 35.6246 4.78804 61.1433C4.84853 95.7181 32.8155 123.686 67.393 123.748C89.4284 123.748 108.798 112.366 119.962 95.1559L123.288 97.3127C111.431 115.605 90.8168 127.711 67.393 127.711C30.6257 127.713 0.822223 97.9093 0.819473 61.1433Z" fill="#172983"/>
<path d="M54.8234 116.552L55.6605 112.676C59.3404 113.472 63.1441 113.891 67.0164 113.891C70.1121 113.891 73.2572 113.624 76.412 113.07C94.6837 109.847 109.146 97.761 116.184 81.9995V82.0036L119.802 83.6188C112.262 100.523 96.7112 113.517 77.1007 116.978C73.7164 117.572 70.3416 117.861 67.0178 117.861C62.8581 117.86 58.7727 117.403 54.8234 116.552Z" fill="#3AAADC"/>
<path d="M9.72209 62.363C9.72484 32.3218 32.9795 6.98727 63.3988 4.85933C64.7707 4.76174 66.1302 4.71362 67.4842 4.71362C73.7539 4.71362 79.8229 5.7336 85.5208 7.61547L84.274 11.3778C78.972 9.62519 73.3264 8.67944 67.4842 8.67944C66.2237 8.67944 64.9563 8.7248 63.6765 8.81415C35.348 10.7909 13.6879 34.3961 13.6879 62.363C13.6879 63.6222 13.7319 64.8882 13.8226 66.1707L9.8678 66.447C9.7702 65.0765 9.72209 63.7156 9.72209 62.363Z" fill="#3AAADC"/>
<path d="M20.3031 67.8019C19.9883 65.5764 19.8329 63.3605 19.8329 61.1693C19.8371 37.982 36.9018 17.7666 60.5125 14.4469L61.0582 18.3701C39.4325 21.4066 23.8015 39.9477 23.8015 61.1693C23.8015 63.1749 23.9403 65.208 24.2263 67.2507C27.2587 88.8723 45.8039 104.507 67.0255 104.507C69.0325 104.507 71.0642 104.37 73.1055 104.081C87.5048 102.061 99.2332 93.1817 105.481 81.2032L108.997 83.037C102.187 96.0987 89.3633 105.806 73.6581 108.009C71.4271 108.323 69.2139 108.472 67.0255 108.472C43.8423 108.47 23.6214 91.4016 20.3031 67.8019Z" fill="#0A71B4"/>
<path d="M96.8565 41.9297L107.625 72.1029H116.22L105.24 41.9297H96.8565Z" fill="#172983"/>
<path d="M46.9939 44.6642V58.5397H57.0397V62.4836H46.9939V69.0474H59.6762L64.6318 72.3713H40.5633V41.3376H61.6585L59.6762 44.6642H46.9939Z" fill="#172983"/>
<path d="M92.0887 63.8514C92.0887 65.1229 91.8248 66.3065 91.2928 67.42C90.7594 68.5252 89.8934 69.4902 88.6975 70.3012C87.5016 71.115 85.9482 71.7569 84.0416 72.2284C82.1336 72.7013 79.794 72.9391 77.0172 72.9391C75.4474 72.9391 73.9202 72.8195 72.4287 72.5845C70.9345 72.3439 69.5172 72.0071 68.1715 71.5658C66.8257 71.1218 65.5844 70.5816 64.4489 69.9452C63.3107 69.3101 62.3279 68.6076 61.5004 67.842L63.7149 65.1779C65.4016 66.6254 67.3659 67.7306 69.6134 68.4825C71.8582 69.2386 74.3271 69.6111 77.0186 69.6111C80.0016 69.6111 82.1157 69.1987 83.357 68.3698C84.5983 67.5437 85.2183 66.4055 85.2183 64.958C85.2183 63.8349 84.7317 62.8878 83.7543 62.1221C82.7797 61.3509 81.1246 60.599 78.7891 59.8595L70.3681 57.2009C67.59 56.3115 65.4909 55.1816 64.0723 53.8083C62.655 52.4323 61.9444 50.6824 61.9444 48.5531C61.9444 47.4603 62.2028 46.4032 62.7197 45.3846C63.2379 44.3646 64.042 43.4642 65.1376 42.6793C66.2277 41.8971 67.6243 41.2758 69.3261 40.818C71.0238 40.3603 73.0706 40.1293 75.4653 40.1293C76.9128 40.1293 78.3547 40.2489 79.7885 40.4854C81.2209 40.7218 82.5955 41.0627 83.911 41.504C85.2265 41.948 86.4541 42.4896 87.5923 43.1247C88.7291 43.757 89.712 44.4608 90.5395 45.2279L88.325 47.8878C86.6383 46.443 84.7468 45.3433 82.6491 44.5859C80.55 43.834 78.1568 43.4587 75.468 43.4587C73.2507 43.4587 71.5902 43.8422 70.4808 44.612C69.3701 45.3804 68.8175 46.3234 68.8175 47.4479C68.8175 48.0678 68.9234 48.6081 69.1296 49.0672C69.3371 49.5236 69.6822 49.9511 70.1715 50.3497C70.6582 50.7511 71.3001 51.1195 72.1002 51.4618C72.8974 51.8 73.8872 52.1615 75.0694 52.5464L83.4491 55.2077C86.1365 56.0627 88.2535 57.1872 89.7889 58.5783C91.3203 59.9626 92.0887 61.7235 92.0887 63.8514Z" fill="#172983"/>
<path d="M111.129 58.7175H98.3508V62.6806H111.129V58.7175Z" fill="#172983"/>
<path d="M96.8467 41.9297L91.5626 57.628L93.4541 59.7738L99.0722 43.2549L96.8467 41.9297Z" fill="#172983"/>
</g>
<defs>
<clipPath id="clip0_221_1436">
<rect width="124" height="128" fill="white" transform="translate(0.25)"/>
</clipPath>
</defs>
</svg>
